<svg xmlns="http://www.w3.org/2000/svg" xmlns:xlink="http://www.w3.org/1999/xlink" width="56" zoomAndPan="magnify" viewBox="0 0 42 42.75" height="56" preserveAspectRatio="xMidYMid meet" version="1.0"><defs><g/><clipPath id="5043041653"><path d="M 0.121094 0 L 41.875 0 L 41.875 42.5 L 0.121094 42.5 Z M 0.121094 0 " clip-rule="nonzero"/></clipPath><clipPath id="2b12349109"><path d="M 0.121094 0 L 41.875 0 L 41.875 41.753906 L 0.121094 41.753906 Z M 0.121094 0 " clip-rule="nonzero"/></clipPath><clipPath id="869acdbea2"><path d="M 5.0625 2.203125 L 36.5625 2.203125 L 36.5625 39.5625 L 5.0625 39.5625 Z M 5.0625 2.203125 " clip-rule="nonzero"/></clipPath></defs><g clip-path="url(#5043041653)"><path fill="#ffffff" d="M 0.121094 0 L 41.878906 0 L 41.878906 189 L 0.121094 189 Z M 0.121094 0 " fill-opacity="1" fill-rule="nonzero"/></g><g clip-path="url(#2b12349109)"><path fill="#ffffff" d="M 0.121094 0 L 41.878906 0 L 41.878906 41.753906 L 0.121094 41.753906 Z M 0.121094 0 " fill-opacity="1" fill-rule="nonzero"/><path fill="#ffffff" d="M 0.121094 0 L 41.878906 0 L 41.878906 41.753906 L 0.121094 41.753906 Z M 0.121094 0 " fill-opacity="1" fill-rule="nonzero"/></g><g fill="#ffffff" fill-opacity="1"><g transform="translate(24.98612, 1.720916)"><g/></g></g><g clip-path="url(#869acdbea2)"><path fill="#7f3395" d="M 34.855469 19.152344 C 34.777344 19.480469 34.453125 19.679688 34.128906 19.597656 C 33.972656 19.5625 33.839844 19.464844 33.757812 19.324219 C 33.671875 19.183594 33.648438 19.019531 33.6875 18.863281 C 33.765625 18.535156 34.09375 18.335938 34.414062 18.414062 C 34.574219 18.457031 34.707031 18.554688 34.789062 18.691406 C 34.871094 18.832031 34.894531 18.996094 34.855469 19.152344 Z M 33.621094 22.449219 C 33.46875 22.75 33.101562 22.863281 32.808594 22.707031 C 32.664062 22.632812 32.558594 22.503906 32.511719 22.347656 C 32.464844 22.195312 32.476562 22.03125 32.554688 21.882812 C 32.628906 21.738281 32.753906 21.632812 32.90625 21.585938 C 32.964844 21.566406 33.027344 21.558594 33.089844 21.558594 C 33.183594 21.558594 33.277344 21.582031 33.367188 21.628906 C 33.664062 21.785156 33.777344 22.152344 33.621094 22.449219 Z M 31.640625 25.351562 C 31.53125 25.472656 31.386719 25.546875 31.226562 25.558594 C 31.066406 25.570312 30.910156 25.511719 30.789062 25.40625 C 30.667969 25.296875 30.597656 25.148438 30.589844 24.988281 C 30.578125 24.820312 30.628906 24.667969 30.738281 24.542969 C 30.960938 24.292969 31.339844 24.269531 31.589844 24.492188 C 31.839844 24.714844 31.863281 25.101562 31.640625 25.351562 Z M 29.03125 27.691406 C 28.898438 27.785156 28.738281 27.820312 28.578125 27.789062 C 28.417969 27.761719 28.28125 27.667969 28.191406 27.535156 C 28.097656 27.402344 28.066406 27.242188 28.09375 27.078125 C 28.121094 26.917969 28.210938 26.78125 28.34375 26.6875 C 28.449219 26.613281 28.566406 26.582031 28.6875 26.582031 C 28.878906 26.582031 29.066406 26.671875 29.183594 26.84375 C 29.375 27.121094 29.300781 27.5 29.03125 27.691406 Z M 26.238281 30.234375 C 25.574219 30.234375 25.03125 29.691406 25.03125 29.015625 C 25.03125 28.34375 25.574219 27.796875 26.238281 27.796875 C 26.902344 27.796875 27.441406 28.34375 27.441406 29.015625 C 27.441406 29.691406 26.902344 30.234375 26.238281 30.234375 Z M 15.386719 30.234375 C 14.726562 30.234375 14.183594 29.691406 14.183594 29.015625 C 14.183594 28.34375 14.726562 27.796875 15.386719 27.796875 C 16.050781 27.796875 16.59375 28.34375 16.59375 29.015625 C 16.59375 29.691406 16.050781 30.234375 15.386719 30.234375 Z M 12.597656 27.691406 C 12.324219 27.5 12.253906 27.121094 12.441406 26.84375 C 12.558594 26.671875 12.746094 26.582031 12.9375 26.582031 C 13.058594 26.582031 13.175781 26.613281 13.28125 26.6875 C 13.414062 26.78125 13.503906 26.917969 13.53125 27.078125 C 13.558594 27.242188 13.527344 27.402344 13.433594 27.535156 C 13.34375 27.667969 13.207031 27.761719 13.046875 27.789062 C 12.886719 27.816406 12.726562 27.785156 12.597656 27.691406 Z M 10.835938 25.40625 C 10.714844 25.511719 10.558594 25.570312 10.398438 25.558594 C 10.238281 25.546875 10.089844 25.472656 9.984375 25.351562 C 9.765625 25.101562 9.789062 24.714844 10.039062 24.492188 C 10.152344 24.390625 10.292969 24.339844 10.4375 24.339844 C 10.605469 24.339844 10.769531 24.40625 10.886719 24.542969 C 10.996094 24.667969 11.050781 24.820312 11.039062 24.988281 C 11.027344 25.148438 10.957031 25.296875 10.835938 25.40625 Z M 8.003906 22.449219 C 7.851562 22.152344 7.964844 21.785156 8.257812 21.628906 C 8.347656 21.582031 8.441406 21.558594 8.539062 21.558594 C 8.597656 21.558594 8.65625 21.566406 8.71875 21.585938 C 8.871094 21.632812 8.996094 21.738281 9.070312 21.882812 C 9.148438 22.03125 9.160156 22.195312 9.113281 22.347656 C 9.066406 22.503906 8.960938 22.632812 8.816406 22.707031 C 8.523438 22.863281 8.160156 22.75 8.003906 22.449219 Z M 6.769531 19.152344 C 6.730469 18.996094 6.753906 18.832031 6.835938 18.691406 C 6.921875 18.554688 7.050781 18.457031 7.210938 18.414062 C 7.257812 18.402344 7.304688 18.398438 7.351562 18.398438 C 7.625 18.398438 7.871094 18.585938 7.941406 18.863281 C 7.976562 19.019531 7.953125 19.183594 7.867188 19.324219 C 7.785156 19.464844 7.65625 19.5625 7.496094 19.597656 C 7.175781 19.679688 6.847656 19.480469 6.769531 19.152344 Z M 6.949219 15.042969 C 7.28125 15.042969 7.554688 15.316406 7.554688 15.652344 C 7.554688 15.988281 7.28125 16.261719 6.949219 16.261719 C 6.617188 16.261719 6.347656 15.988281 6.347656 15.652344 C 6.347656 15.316406 6.617188 15.042969 6.949219 15.042969 Z M 22.621094 33.589844 L 22.621094 31.757812 L 23.828125 30.84375 L 23.828125 34.503906 Z M 21.414062 35.367188 L 22.074219 34.699219 L 23.460938 35.746094 L 21.414062 37.46875 Z M 19.550781 34.699219 L 20.210938 35.367188 L 20.210938 37.46875 L 18.167969 35.746094 Z M 19.003906 31.757812 L 19.003906 33.589844 L 17.800781 34.503906 L 17.800781 30.84375 Z M 20.210938 29.984375 L 19.550781 30.652344 L 18.167969 29.601562 L 20.210938 27.882812 Z M 20.8125 34.25 L 20.210938 33.640625 L 20.210938 31.707031 L 20.8125 31.097656 L 21.414062 31.707031 L 21.414062 33.640625 Z M 22.074219 30.652344 L 21.414062 29.984375 L 21.414062 27.882812 L 23.460938 29.601562 Z M 34.675781 15.042969 C 35.007812 15.042969 35.277344 15.316406 35.277344 15.652344 C 35.277344 15.988281 35.007812 16.261719 34.675781 16.261719 C 34.34375 16.261719 34.074219 15.988281 34.074219 15.652344 C 34.074219 15.316406 34.34375 15.042969 34.675781 15.042969 Z M 35.140625 17.414062 C 35.910156 17.203125 36.484375 16.496094 36.484375 15.652344 C 36.484375 14.859375 35.976562 14.191406 35.277344 13.9375 L 35.277344 7.6875 C 35.277344 4.660156 32.84375 2.199219 29.851562 2.199219 L 23.222656 2.199219 C 22.226562 2.199219 21.414062 3.023438 21.414062 4.027344 C 21.414062 5.039062 22.226562 5.855469 23.222656 5.855469 L 23.828125 5.855469 L 23.828125 4.636719 L 23.222656 4.636719 C 22.890625 4.636719 22.621094 4.367188 22.621094 4.027344 C 22.621094 3.691406 22.890625 3.417969 23.222656 3.417969 L 29.851562 3.417969 C 32.179688 3.417969 34.074219 5.332031 34.074219 7.6875 L 34.074219 13.9375 C 33.371094 14.191406 32.867188 14.859375 32.867188 15.652344 C 32.867188 16.34375 33.25 16.9375 33.808594 17.25 C 33.644531 17.292969 33.484375 17.351562 33.335938 17.445312 C 32.921875 17.695312 32.632812 18.097656 32.515625 18.570312 C 32.402344 19.042969 32.472656 19.535156 32.726562 19.953125 C 32.816406 20.105469 32.929688 20.230469 33.054688 20.347656 C 32.882812 20.351562 32.714844 20.371094 32.550781 20.421875 C 32.085938 20.566406 31.710938 20.886719 31.488281 21.316406 C 31.261719 21.75 31.214844 22.246094 31.359375 22.710938 C 31.410156 22.878906 31.496094 23.03125 31.589844 23.175781 C 30.964844 23.03125 30.285156 23.21875 29.835938 23.738281 C 29.515625 24.101562 29.355469 24.570312 29.382812 25.058594 C 29.394531 25.234375 29.4375 25.402344 29.492188 25.5625 C 28.921875 25.273438 28.222656 25.292969 27.660156 25.683594 C 27.308594 25.929688 27.066406 26.292969 26.953125 26.703125 C 26.722656 26.632812 26.488281 26.578125 26.238281 26.578125 C 25.121094 26.578125 24.1875 27.359375 23.914062 28.402344 L 20.8125 25.785156 L 17.710938 28.402344 C 17.4375 27.359375 16.503906 26.578125 15.386719 26.578125 C 15.136719 26.578125 14.902344 26.632812 14.671875 26.703125 C 14.558594 26.292969 14.316406 25.929688 13.964844 25.683594 C 13.402344 25.292969 12.703125 25.273438 12.132812 25.5625 C 12.1875 25.402344 12.230469 25.234375 12.242188 25.058594 C 12.269531 24.570312 12.113281 24.101562 11.792969 23.738281 C 11.335938 23.21875 10.660156 23.03125 10.039062 23.175781 C 10.132812 23.03125 10.214844 22.878906 10.265625 22.710938 C 10.410156 22.246094 10.363281 21.75 10.140625 21.316406 C 9.914062 20.886719 9.539062 20.566406 9.078125 20.421875 C 8.910156 20.371094 8.742188 20.351562 8.574219 20.347656 C 8.699219 20.230469 8.8125 20.105469 8.898438 19.953125 C 9.148438 19.535156 9.226562 19.042969 9.109375 18.570312 C 8.996094 18.097656 8.703125 17.695312 8.289062 17.445312 C 8.140625 17.351562 7.980469 17.292969 7.816406 17.25 C 8.375 16.9375 8.757812 16.34375 8.757812 15.652344 C 8.757812 14.859375 8.253906 14.191406 7.554688 13.9375 L 7.554688 7.6875 C 7.554688 5.332031 9.445312 3.417969 11.773438 3.417969 L 18.402344 3.417969 C 18.734375 3.417969 19.003906 3.691406 19.003906 4.027344 C 19.003906 4.367188 18.734375 4.636719 18.402344 4.636719 L 17.800781 4.636719 L 17.800781 5.855469 L 18.402344 5.855469 C 19.398438 5.855469 20.210938 5.039062 20.210938 4.027344 C 20.210938 3.023438 19.398438 2.199219 18.402344 2.199219 L 11.773438 2.199219 C 8.78125 2.199219 6.347656 4.660156 6.347656 7.6875 L 6.347656 13.9375 C 5.648438 14.191406 5.144531 14.859375 5.144531 15.652344 C 5.144531 16.496094 5.714844 17.203125 6.484375 17.414062 C 6.210938 17.566406 5.972656 17.78125 5.804688 18.0625 C 5.558594 18.480469 5.480469 18.972656 5.597656 19.445312 C 5.714844 19.921875 6.003906 20.320312 6.417969 20.574219 C 6.695312 20.742188 7 20.824219 7.316406 20.832031 C 6.730469 21.378906 6.550781 22.269531 6.9375 23.015625 C 7.257812 23.640625 7.890625 23.996094 8.542969 23.996094 C 8.671875 23.996094 8.804688 23.976562 8.933594 23.949219 C 8.757812 24.210938 8.652344 24.515625 8.632812 24.839844 C 8.601562 25.328125 8.761719 25.796875 9.082031 26.160156 C 9.402344 26.527344 9.847656 26.742188 10.328125 26.773438 C 10.363281 26.777344 10.402344 26.777344 10.441406 26.777344 C 10.722656 26.777344 10.992188 26.707031 11.242188 26.578125 C 10.972656 27.339844 11.222656 28.214844 11.910156 28.695312 C 12.21875 28.90625 12.570312 29.019531 12.933594 29.019531 C 12.949219 29.019531 12.964844 29.015625 12.976562 29.015625 C 12.976562 30.363281 14.058594 31.453125 15.386719 31.453125 C 15.828125 31.453125 16.238281 31.328125 16.59375 31.117188 L 16.59375 36.007812 L 20.8125 39.5625 L 25.03125 36.007812 L 25.03125 31.117188 C 25.386719 31.328125 25.796875 31.453125 26.238281 31.453125 C 27.566406 31.453125 28.648438 30.363281 28.648438 29.015625 C 28.660156 29.015625 28.675781 29.019531 28.691406 29.019531 C 29.054688 29.019531 29.410156 28.90625 29.714844 28.695312 C 30.402344 28.214844 30.652344 27.339844 30.386719 26.578125 C 30.632812 26.707031 30.902344 26.777344 31.1875 26.777344 C 31.222656 26.777344 31.261719 26.777344 31.300781 26.773438 C 31.777344 26.742188 32.222656 26.527344 32.542969 26.160156 C 32.863281 25.796875 33.023438 25.328125 32.992188 24.839844 C 32.976562 24.515625 32.863281 24.210938 32.695312 23.949219 C 32.820312 23.976562 32.953125 23.996094 33.082031 23.996094 C 33.734375 23.996094 34.363281 23.640625 34.6875 23.015625 C 35.074219 22.269531 34.894531 21.378906 34.3125 20.832031 C 34.625 20.824219 34.929688 20.742188 35.207031 20.574219 C 35.621094 20.320312 35.910156 19.921875 36.027344 19.445312 C 36.144531 18.972656 36.070312 18.480469 35.820312 18.0625 C 35.652344 17.78125 35.417969 17.566406 35.140625 17.414062 " fill-opacity="1" fill-rule="nonzero"/></g></svg>