<svg xmlns="http://www.w3.org/2000/svg" xmlns:xlink="http://www.w3.org/1999/xlink" width="56" zoomAndPan="magnify" viewBox="0 0 42 42.75" height="56" preserveAspectRatio="xMidYMid meet" version="1.0"><defs><clipPath id="00297e1023"><path d="M 0.121094 0 L 41.875 0 L 41.875 41.753906 L 0.121094 41.753906 Z M 0.121094 0 " clip-rule="nonzero"/></clipPath><clipPath id="9f7d2878e0"><path d="M 3.054688 1.03125 L 38.949219 1.03125 L 38.949219 40.589844 L 3.054688 40.589844 Z M 3.054688 1.03125 " clip-rule="nonzero"/></clipPath></defs><g clip-path="url(#00297e1023)"><path fill="#ffffff" d="M 0.121094 0 L 41.878906 0 L 41.878906 41.753906 L 0.121094 41.753906 Z M 0.121094 0 " fill-opacity="1" fill-rule="nonzero"/><path fill="#ffffff" d="M 0.121094 0 L 41.878906 0 L 41.878906 41.753906 L 0.121094 41.753906 Z M 0.121094 0 " fill-opacity="1" fill-rule="nonzero"/></g><g clip-path="url(#9f7d2878e0)"><path fill="#7f3395" d="M 33.109375 39.3125 L 8.894531 39.3125 C 9.191406 37.859375 10.484375 36.761719 12.03125 36.761719 L 17.03125 36.761719 C 18.179688 37.585938 19.554688 38.039062 21 38.039062 C 22.449219 38.039062 23.820312 37.585938 24.972656 36.761719 L 29.96875 36.761719 C 31.515625 36.761719 32.808594 37.859375 33.109375 39.3125 Z M 4.382812 12.03125 C 4.355469 11.890625 4.34375 11.746094 4.34375 11.605469 C 4.34375 10.554688 5.058594 9.648438 6.074219 9.394531 L 11.390625 8.070312 C 11.398438 11.605469 13.40625 14.875 16.535156 16.519531 C 16.625 17.492188 17.441406 18.257812 18.4375 18.257812 C 18.554688 18.257812 18.667969 18.242188 18.777344 18.222656 L 19.847656 19.289062 C 19.382812 19.640625 19.078125 20.1875 19.078125 20.8125 C 19.078125 21.5 19.453125 22.105469 20.003906 22.4375 L 19.640625 22.996094 L 17.390625 23.691406 L 18.816406 25.632812 L 18.75 28.121094 L 21 27.285156 L 23.25 28.121094 L 23.1875 25.632812 L 24.609375 23.691406 L 22.363281 22.996094 L 21.996094 22.4375 C 22.550781 22.105469 22.921875 21.5 22.921875 20.8125 C 22.921875 20.1875 22.617188 19.640625 22.15625 19.289062 L 23.222656 18.222656 C 23.332031 18.242188 23.445312 18.257812 23.5625 18.257812 C 24.5625 18.257812 25.378906 17.492188 25.46875 16.519531 C 28.597656 14.875 30.601562 11.605469 30.609375 8.070312 L 35.925781 9.394531 C 36.945312 9.648438 37.65625 10.554688 37.65625 11.605469 C 37.65625 11.746094 37.644531 11.890625 37.617188 12.027344 C 36 20.492188 31.910156 28.183594 25.792969 34.277344 L 24.921875 35.144531 C 23.875 36.1875 22.484375 36.761719 21 36.761719 C 19.519531 36.761719 18.128906 36.1875 17.078125 35.144531 L 16.207031 34.277344 C 10.089844 28.183594 6.003906 20.492188 4.382812 12.03125 Z M 18.4375 16.984375 C 18.085938 16.984375 17.796875 16.695312 17.796875 16.34375 C 17.796875 15.992188 18.085938 15.707031 18.4375 15.707031 C 18.792969 15.707031 19.078125 15.992188 19.078125 16.34375 C 19.078125 16.695312 18.792969 16.984375 18.4375 16.984375 Z M 21.917969 26.261719 L 21 25.921875 L 20.082031 26.261719 L 20.109375 25.230469 L 19.484375 24.378906 L 20.460938 24.082031 L 21 23.257812 L 21.542969 24.082031 L 22.519531 24.378906 L 21.890625 25.230469 Z M 21.296875 21.371094 L 21 20.917969 L 20.707031 21.371094 C 20.503906 21.261719 20.359375 21.054688 20.359375 20.8125 C 20.359375 20.460938 20.648438 20.171875 21 20.171875 C 21.355469 20.171875 21.640625 20.460938 21.640625 20.8125 C 21.640625 21.054688 21.5 21.261719 21.296875 21.371094 Z M 22.921875 16.34375 C 22.921875 15.992188 23.210938 15.707031 23.5625 15.707031 C 23.917969 15.707031 24.203125 15.992188 24.203125 16.34375 C 24.203125 16.695312 23.917969 16.984375 23.5625 16.984375 C 23.210938 16.984375 22.921875 16.695312 22.921875 16.34375 Z M 14.59375 4.496094 L 14.59375 2.308594 L 27.40625 2.308594 L 27.40625 4.496094 C 27.40625 5.839844 28.164062 7.027344 29.3125 7.628906 C 29.320312 7.769531 29.328125 7.910156 29.328125 8.050781 C 29.328125 11.023438 27.703125 13.78125 25.136719 15.25 C 24.789062 14.757812 24.214844 14.429688 23.5625 14.429688 C 22.503906 14.429688 21.640625 15.289062 21.640625 16.34375 C 21.640625 16.804688 21.8125 17.222656 22.085938 17.554688 L 21 18.632812 L 19.917969 17.554688 C 20.191406 17.222656 20.359375 16.804688 20.359375 16.34375 C 20.359375 15.289062 19.5 14.429688 18.4375 14.429688 C 17.789062 14.429688 17.214844 14.757812 16.867188 15.25 C 14.300781 13.78125 12.671875 11.023438 12.671875 8.050781 C 12.671875 7.910156 12.679688 7.769531 12.6875 7.628906 C 13.839844 7.027344 14.59375 5.839844 14.59375 4.496094 Z M 38.875 12.265625 C 38.917969 12.050781 38.9375 11.828125 38.9375 11.605469 C 38.9375 9.96875 37.828125 8.550781 36.238281 8.15625 L 30.421875 6.707031 C 29.402344 6.453125 28.6875 5.546875 28.6875 4.496094 L 28.6875 1.03125 L 13.3125 1.03125 L 13.3125 4.496094 C 13.3125 5.546875 12.601562 6.453125 11.582031 6.707031 L 5.765625 8.15625 C 4.175781 8.550781 3.0625 9.96875 3.0625 11.605469 C 3.0625 11.828125 3.082031 12.050781 3.125 12.265625 C 4.792969 20.984375 9 28.902344 15.304688 35.179688 L 15.609375 35.484375 L 12.03125 35.484375 C 9.558594 35.484375 7.546875 37.488281 7.546875 39.953125 L 7.546875 40.589844 L 34.453125 40.589844 L 34.453125 39.953125 C 34.453125 37.488281 32.441406 35.484375 29.96875 35.484375 L 26.390625 35.484375 L 26.699219 35.179688 C 33 28.902344 37.210938 20.984375 38.875 12.265625 " fill-opacity="1" fill-rule="nonzero"/></g></svg>