<svg xmlns="http://www.w3.org/2000/svg" xmlns:xlink="http://www.w3.org/1999/xlink" width="56" zoomAndPan="magnify" viewBox="0 0 42 42.75" height="56" preserveAspectRatio="xMidYMid meet" version="1.0"><defs><clipPath id="a469a0736b"><path d="M 0.121094 0 L 41.875 0 L 41.875 41.753906 L 0.121094 41.753906 Z M 0.121094 0 " clip-rule="nonzero"/></clipPath><clipPath id="78a4a6d4ea"><path d="M 27.828125 22.671875 L 33.855469 22.671875 L 33.855469 28.558594 L 27.828125 28.558594 Z M 27.828125 22.671875 " clip-rule="nonzero"/></clipPath><clipPath id="ec2a9e1942"><path d="M 13.144531 22.671875 L 19.132812 22.671875 L 19.132812 28.558594 L 13.144531 28.558594 Z M 13.144531 22.671875 " clip-rule="nonzero"/></clipPath><clipPath id="2b13789473"><path d="M 0.121094 11 L 3 11 L 3 14 L 0.121094 14 Z M 0.121094 11 " clip-rule="nonzero"/></clipPath><clipPath id="ce2494daa7"><path d="M 20.75 0.0078125 L 41.875 0.0078125 L 41.875 19.761719 L 20.75 19.761719 Z M 20.75 0.0078125 " clip-rule="nonzero"/></clipPath><clipPath id="00d2c4bd74"><path d="M 12.175781 28.007812 L 16.300781 28.007812 L 16.300781 28.558594 L 12.175781 28.558594 Z M 12.175781 28.007812 " clip-rule="nonzero"/></clipPath><clipPath id="9b7ea09383"><path d="M 27.140625 28.007812 L 30.660156 28.007812 L 30.660156 28.558594 L 27.140625 28.558594 Z M 27.140625 28.007812 " clip-rule="nonzero"/></clipPath></defs><g clip-path="url(#a469a0736b)"><path fill="#ffffff" d="M 0.121094 0 L 41.878906 0 L 41.878906 41.753906 L 0.121094 41.753906 Z M 0.121094 0 " fill-opacity="1" fill-rule="nonzero"/><path fill="#ffffff" d="M 0.121094 0 L 41.878906 0 L 41.878906 41.753906 L 0.121094 41.753906 Z M 0.121094 0 " fill-opacity="1" fill-rule="nonzero"/></g><path fill="#7f3395" d="M 34.269531 19.339844 L 28.628906 19.339844 C 28.34375 19.339844 28.125 19.097656 28.15625 18.824219 L 28.523438 15.363281 C 28.535156 15.257812 28.628906 15.171875 28.738281 15.171875 L 30.960938 15.171875 C 31.257812 15.171875 31.527344 15.289062 31.714844 15.492188 L 34.613281 18.683594 C 34.832031 18.925781 34.617188 19.339844 34.269531 19.339844 Z M 36.964844 19.800781 L 32.554688 14.945312 C 32.164062 14.519531 31.601562 14.277344 30.988281 14.277344 L 27.863281 14.277344 C 27.597656 14.277344 27.34375 14.367188 27.132812 14.515625 L 27.292969 13.019531 C 27.367188 12.339844 26.824219 11.742188 26.125 11.742188 L 4.097656 11.742188 C 3.675781 11.742188 3.332031 12.082031 3.332031 12.5 C 3.332031 12.917969 3.675781 13.253906 4.097656 13.253906 L 15.136719 13.253906 C 15.5625 13.253906 15.902344 13.59375 15.902344 14.011719 C 15.902344 14.425781 15.5625 14.765625 15.136719 14.765625 L 5.652344 14.765625 C 5.230469 14.765625 4.886719 15.101562 4.886719 15.519531 C 4.886719 15.9375 5.230469 16.277344 5.652344 16.277344 L 14.378906 16.277344 C 14.800781 16.277344 15.144531 16.613281 15.144531 17.03125 C 15.144531 17.449219 14.800781 17.785156 14.378906 17.785156 L 2.101562 17.785156 C 1.679688 17.785156 1.335938 18.125 1.335938 18.542969 C 1.335938 18.957031 1.679688 19.296875 2.101562 19.296875 L 10.792969 19.296875 C 11.21875 19.296875 11.5625 19.636719 11.5625 20.050781 C 11.5625 20.46875 11.21875 20.808594 10.792969 20.808594 L 5.417969 20.808594 C 4.996094 20.808594 4.652344 21.144531 4.652344 21.5625 C 4.652344 21.980469 4.996094 22.316406 5.417969 22.316406 L 7.628906 22.316406 L 7.410156 24.347656 C 7.339844 25.027344 7.882812 25.621094 8.578125 25.621094 L 12.542969 25.621094 C 12.542969 23.675781 14.152344 22.089844 16.128906 22.089844 C 18.109375 22.089844 19.71875 23.675781 19.71875 25.621094 L 27.261719 25.621094 C 27.261719 23.675781 28.871094 22.089844 30.847656 22.089844 C 32.824219 22.089844 34.4375 23.675781 34.4375 25.621094 L 35.367188 25.621094 C 36.28125 25.621094 37.101562 24.894531 37.195312 23.992188 L 37.472656 21.410156 C 37.535156 20.804688 37.355469 20.226562 36.964844 19.800781 " fill-opacity="1" fill-rule="nonzero"/><g clip-path="url(#78a4a6d4ea)"><path fill="#7f3395" d="M 30.847656 26.886719 C 30.140625 26.886719 29.5625 26.320312 29.5625 25.621094 C 29.5625 24.925781 30.140625 24.359375 30.847656 24.359375 C 31.554688 24.359375 32.132812 24.925781 32.132812 25.621094 C 32.132812 26.320312 31.554688 26.886719 30.847656 26.886719 Z M 30.847656 22.6875 C 29.203125 22.6875 27.867188 24.003906 27.867188 25.621094 C 27.867188 27.242188 29.203125 28.558594 30.847656 28.558594 C 32.492188 28.558594 33.832031 27.242188 33.832031 25.621094 C 33.832031 24.003906 32.492188 22.6875 30.847656 22.6875 " fill-opacity="1" fill-rule="nonzero"/></g><g clip-path="url(#ec2a9e1942)"><path fill="#7f3395" d="M 16.128906 26.886719 C 15.421875 26.886719 14.847656 26.320312 14.847656 25.621094 C 14.847656 24.925781 15.421875 24.359375 16.128906 24.359375 C 16.839844 24.359375 17.414062 24.925781 17.414062 25.621094 C 17.414062 26.320312 16.839844 26.886719 16.128906 26.886719 Z M 16.128906 22.6875 C 14.484375 22.6875 13.148438 24.003906 13.148438 25.621094 C 13.148438 27.242188 14.484375 28.558594 16.128906 28.558594 C 17.773438 28.558594 19.113281 27.242188 19.113281 25.621094 C 19.113281 24.003906 17.773438 22.6875 16.128906 22.6875 " fill-opacity="1" fill-rule="nonzero"/></g><g clip-path="url(#2b13789473)"><path fill="#7f3395" d="M 2.550781 12.5 C 2.550781 12.082031 2.207031 11.742188 1.78125 11.742188 L 0.890625 11.742188 C 0.464844 11.742188 0.121094 12.082031 0.121094 12.5 C 0.121094 12.917969 0.464844 13.253906 0.890625 13.253906 L 1.78125 13.253906 C 2.207031 13.253906 2.550781 12.917969 2.550781 12.5 " fill-opacity="1" fill-rule="nonzero"/></g><path fill="#7f3395" d="M 1.734375 15.519531 C 1.734375 15.9375 2.078125 16.277344 2.5 16.277344 L 3.394531 16.277344 C 3.820312 16.277344 4.164062 15.9375 4.164062 15.519531 C 4.164062 15.101562 3.820312 14.765625 3.394531 14.765625 L 2.5 14.765625 C 2.078125 14.765625 1.734375 15.101562 1.734375 15.519531 " fill-opacity="1" fill-rule="nonzero"/><g clip-path="url(#ce2494daa7)"><path fill="#7f3395" d="M 30.203125 0.0078125 C 26.324219 0.0078125 22.886719 1.871094 20.765625 4.738281 C 22.871094 2.707031 25.75 1.457031 28.929688 1.457031 C 35.378906 1.457031 40.609375 6.605469 40.609375 12.953125 C 40.609375 15.484375 39.777344 17.824219 38.371094 19.726562 C 40.535156 17.636719 41.878906 14.726562 41.878906 11.507812 C 41.878906 5.15625 36.652344 0.0078125 30.203125 0.0078125 " fill-opacity="1" fill-rule="nonzero"/></g><path fill="#7f3395" d="M 30.257812 12.570312 C 30.257812 12.988281 29.917969 13.328125 29.492188 13.328125 C 29.070312 13.328125 28.726562 12.988281 28.726562 12.570312 C 28.726562 12.15625 29.070312 11.816406 29.492188 11.816406 C 29.917969 11.816406 30.257812 12.15625 30.257812 12.570312 " fill-opacity="1" fill-rule="nonzero"/><path fill="#7f3395" d="M 36.421875 9.003906 C 36.296875 8.765625 36.003906 8.675781 35.765625 8.800781 L 30.054688 11.742188 C 30.324219 11.917969 30.507812 12.226562 30.507812 12.570312 C 30.507812 12.578125 30.503906 12.585938 30.503906 12.59375 L 36.21875 9.652344 C 36.457031 9.527344 36.546875 9.238281 36.421875 9.003906 Z M 28.460938 7.789062 C 28.199219 7.84375 28.03125 8.101562 28.085938 8.359375 L 28.832031 11.816406 C 29.007812 11.664062 29.238281 11.574219 29.492188 11.574219 C 29.59375 11.574219 29.691406 11.589844 29.785156 11.617188 L 29.042969 8.160156 C 28.984375 7.902344 28.726562 7.734375 28.460938 7.789062 " fill-opacity="1" fill-rule="nonzero"/><g clip-path="url(#00d2c4bd74)"><path fill="#7f3395" d="M 16.261719 28.027344 L 16.261719 28.558594 L 12.199219 28.558594 Z M 16.261719 28.027344 " fill-opacity="1" fill-rule="nonzero"/></g><g clip-path="url(#9b7ea09383)"><path fill="#7f3395" d="M 30.644531 28.027344 L 30.644531 28.558594 L 27.140625 28.558594 Z M 30.644531 28.027344 " fill-opacity="1" fill-rule="nonzero"/></g></svg>