<svg xmlns="http://www.w3.org/2000/svg" xmlns:xlink="http://www.w3.org/1999/xlink" width="56" zoomAndPan="magnify" viewBox="0 0 42 42.75" height="56" preserveAspectRatio="xMidYMid meet" version="1.0"><defs><clipPath id="18c9b090ad"><path d="M 0.121094 0 L 41.875 0 L 41.875 41.753906 L 0.121094 41.753906 Z M 0.121094 0 " clip-rule="nonzero"/></clipPath><clipPath id="4e5cb78733"><path d="M 24 14 L 39.453125 14 L 39.453125 30 L 24 30 Z M 24 14 " clip-rule="nonzero"/></clipPath><clipPath id="1a56eacaa9"><path d="M 2.09375 6.554688 L 30 6.554688 L 30 37.320312 L 2.09375 37.320312 Z M 2.09375 6.554688 " clip-rule="nonzero"/></clipPath></defs><g clip-path="url(#18c9b090ad)"><path fill="#ffffff" d="M 0.121094 0 L 41.878906 0 L 41.878906 41.753906 L 0.121094 41.753906 Z M 0.121094 0 " fill-opacity="1" fill-rule="nonzero"/><path fill="#ffffff" d="M 0.121094 0 L 41.878906 0 L 41.878906 41.753906 L 0.121094 41.753906 Z M 0.121094 0 " fill-opacity="1" fill-rule="nonzero"/></g><g clip-path="url(#4e5cb78733)"><path fill="#7f3395" d="M 39.453125 22.011719 C 39.453125 17.820312 36.039062 14.390625 31.871094 14.390625 C 27.699219 14.390625 24.285156 17.820312 24.285156 22.011719 C 24.285156 26.199219 27.699219 29.628906 31.871094 29.628906 C 36.039062 29.628906 39.453125 26.199219 39.453125 22.011719 Z M 31.285156 27.285156 L 31.285156 28.425781 C 28.222656 28.164062 25.746094 25.671875 25.484375 22.597656 L 26.621094 22.597656 C 26.941406 22.597656 27.203125 22.332031 27.203125 22.011719 C 27.203125 21.6875 26.941406 21.425781 26.621094 21.425781 L 25.484375 21.425781 C 25.773438 18.347656 28.222656 15.859375 31.285156 15.59375 L 31.285156 16.738281 C 31.285156 17.058594 31.550781 17.324219 31.871094 17.324219 C 32.191406 17.324219 32.453125 17.058594 32.453125 16.738281 L 32.453125 15.59375 C 35.515625 15.886719 37.996094 18.347656 38.257812 21.425781 L 37.121094 21.425781 C 36.796875 21.425781 36.535156 21.6875 36.535156 22.011719 C 36.535156 22.332031 36.796875 22.597656 37.121094 22.597656 L 38.257812 22.597656 C 37.964844 25.671875 35.515625 28.164062 32.453125 28.425781 L 32.453125 27.285156 C 32.453125 26.960938 32.191406 26.699219 31.871094 26.699219 C 31.550781 26.699219 31.285156 26.960938 31.285156 27.285156 Z M 31.285156 27.285156 " fill-opacity="1" fill-rule="nonzero"/></g><path fill="#7f3395" d="M 29.566406 32.0625 C 29.246094 31.972656 28.925781 32.148438 28.835938 32.472656 C 28.75 32.792969 28.925781 33.117188 29.246094 33.203125 C 29.625 33.320312 30.03125 33.410156 30.441406 33.496094 C 30.46875 33.496094 30.5 33.496094 30.558594 33.496094 C 30.820312 33.496094 31.082031 33.292969 31.140625 33.027344 C 31.199219 32.707031 30.996094 32.414062 30.675781 32.355469 C 30.296875 32.265625 29.914062 32.179688 29.566406 32.0625 Z M 29.566406 32.0625 " fill-opacity="1" fill-rule="nonzero"/><path fill="#7f3395" d="M 26.621094 30.625 C 26.359375 30.449219 25.980469 30.507812 25.804688 30.769531 C 25.628906 31.035156 25.6875 31.414062 25.949219 31.589844 C 26.300781 31.824219 26.648438 32.03125 27 32.238281 C 27.085938 32.296875 27.175781 32.296875 27.289062 32.296875 C 27.496094 32.296875 27.699219 32.179688 27.816406 32.003906 C 27.960938 31.707031 27.875 31.355469 27.582031 31.210938 C 27.234375 31.035156 26.910156 30.828125 26.621094 30.625 Z M 26.621094 30.625 " fill-opacity="1" fill-rule="nonzero"/><path fill="#7f3395" d="M 22.042969 26.902344 C 22.128906 27.109375 22.363281 27.253906 22.566406 27.253906 C 22.652344 27.253906 22.742188 27.226562 22.800781 27.195312 C 23.089844 27.050781 23.207031 26.726562 23.089844 26.433594 C 22.945312 26.113281 22.800781 25.761719 22.683594 25.410156 C 22.59375 25.117188 22.246094 24.941406 21.953125 25.027344 C 21.660156 25.117188 21.488281 25.46875 21.574219 25.761719 C 21.71875 26.140625 21.867188 26.523438 22.042969 26.902344 Z M 22.042969 26.902344 " fill-opacity="1" fill-rule="nonzero"/><path fill="#7f3395" d="M 22.246094 23.242188 C 22.214844 22.890625 22.1875 22.507812 22.1875 22.128906 C 22.1875 21.804688 21.925781 21.542969 21.605469 21.542969 C 21.28125 21.542969 21.019531 21.804688 21.019531 22.128906 C 21.019531 22.539062 21.050781 22.949219 21.078125 23.359375 C 21.109375 23.652344 21.371094 23.886719 21.660156 23.886719 C 21.691406 23.886719 21.691406 23.886719 21.71875 23.886719 C 22.042969 23.828125 22.273438 23.535156 22.246094 23.242188 Z M 22.246094 23.242188 " fill-opacity="1" fill-rule="nonzero"/><path fill="#7f3395" d="M 24.082031 29.980469 C 24.199219 30.097656 24.34375 30.15625 24.519531 30.15625 C 24.667969 30.15625 24.8125 30.097656 24.929688 30.007812 C 25.160156 29.773438 25.191406 29.421875 24.957031 29.1875 C 24.695312 28.925781 24.460938 28.632812 24.257812 28.339844 C 24.054688 28.074219 23.703125 28.015625 23.441406 28.222656 C 23.179688 28.425781 23.121094 28.777344 23.324219 29.042969 C 23.558594 29.363281 23.820312 29.6875 24.082031 29.980469 Z M 24.082031 29.980469 " fill-opacity="1" fill-rule="nonzero"/><path fill="#7f3395" d="M 31.140625 11.84375 L 30.382812 12.605469 C 30.148438 12.839844 30.148438 13.191406 30.382812 13.425781 C 30.5 13.542969 30.644531 13.601562 30.789062 13.601562 C 30.9375 13.601562 31.082031 13.542969 31.199219 13.425781 L 33.035156 11.578125 C 33.269531 11.34375 33.269531 10.992188 33.035156 10.757812 L 31.199219 8.914062 C 30.964844 8.679688 30.617188 8.679688 30.382812 8.914062 C 30.148438 9.148438 30.148438 9.5 30.382812 9.734375 L 31.285156 10.640625 C 26.472656 11.140625 22.480469 14.628906 21.3125 19.433594 C 21.222656 19.753906 21.429688 20.078125 21.75 20.136719 C 21.808594 20.136719 21.835938 20.164062 21.894531 20.164062 C 22.15625 20.164062 22.390625 19.988281 22.449219 19.726562 C 23.46875 15.476562 26.941406 12.398438 31.140625 11.84375 Z M 31.140625 11.84375 " fill-opacity="1" fill-rule="nonzero"/><path fill="#7f3395" d="M 31.898438 22.363281 C 31.898438 22.363281 31.929688 22.363281 31.929688 22.363281 L 33.679688 22.363281 C 34 22.363281 34.261719 22.097656 34.261719 21.777344 C 34.261719 21.453125 34 21.191406 33.679688 21.191406 L 32.453125 21.191406 L 32.453125 18.847656 C 32.453125 18.523438 32.191406 18.261719 31.871094 18.261719 C 31.550781 18.261719 31.285156 18.523438 31.285156 18.847656 L 31.285156 21.777344 C 31.285156 22.097656 31.550781 22.363281 31.871094 22.363281 C 31.871094 22.363281 31.898438 22.363281 31.898438 22.363281 Z M 31.898438 22.363281 " fill-opacity="1" fill-rule="nonzero"/><g clip-path="url(#1a56eacaa9)"><path fill="#7f3395" d="M 2.96875 19.636719 L 3.171875 19.988281 C 3.171875 19.988281 3.171875 20.019531 3.199219 20.019531 L 4.015625 21.335938 C 4.015625 21.367188 4.046875 21.367188 4.046875 21.394531 L 16.851562 37.042969 C 16.964844 37.1875 17.113281 37.246094 17.289062 37.246094 C 17.460938 37.246094 17.636719 37.160156 17.726562 37.042969 L 23.03125 30.566406 C 22.800781 30.300781 22.566406 30.039062 22.363281 29.746094 C 22.332031 29.714844 22.304688 29.65625 22.273438 29.628906 L 17.289062 35.753906 L 4.980469 20.691406 L 4.164062 19.402344 L 3.988281 19.082031 C 3.492188 17.96875 3.257812 16.765625 3.289062 15.535156 C 3.375 11.550781 6.527344 8.152344 10.257812 7.945312 C 13.058594 7.800781 15.449219 9.996094 16.792969 12.105469 C 16.90625 12.28125 17.082031 12.371094 17.289062 12.371094 C 17.492188 12.371094 17.667969 12.253906 17.78125 12.105469 C 19.09375 9.996094 21.515625 7.800781 24.316406 7.945312 C 25.976562 8.035156 27.582031 8.738281 28.808594 9.9375 C 28.894531 9.761719 28.984375 9.617188 29.128906 9.46875 C 29.273438 9.324219 29.449219 9.207031 29.625 9.117188 C 28.164062 7.742188 26.328125 6.890625 24.34375 6.773438 C 21.398438 6.628906 18.863281 8.621094 17.289062 10.757812 C 15.710938 8.621094 13.175781 6.628906 10.199219 6.773438 C 5.796875 7.007812 2.238281 10.847656 2.121094 15.507812 C 2.09375 16.941406 2.355469 18.320312 2.9375 19.609375 C 2.96875 19.609375 2.96875 19.636719 2.96875 19.636719 Z M 2.96875 19.636719 " fill-opacity="1" fill-rule="nonzero"/></g></svg>